<?xml version="1.0" encoding="UTF-8"?>
<svg id="Livello_1" xmlns="http://www.w3.org/2000/svg" version="1.1" viewBox="0 0 395 370.7">
  <!-- Generator: Adobe Illustrator 29.3.1, SVG Export Plug-In . SVG Version: 2.1.0 Build 151)  -->
  <defs>
    <style>
      .st0 {
        fill: none;
      }

      .st1 {
        fill: #cdde00;
      }
    </style>
  </defs>
  <g id="Livello_11">
    <path class="st1" d="M151.9,331.2c0,21.8-17.7,39.5-39.5,39.5s-39.5-17.7-39.5-39.5,17.7-39.5,39.5-39.5,39.5,17.8,39.5,39.5ZM355.5,291.8c-21.8,0-39.5,17.7-39.5,39.5s17.7,39.5,39.5,39.5,39.5-17.8,39.5-39.6-17.7-39.4-39.5-39.4ZM392.5,176.2l-313.4,48c1.2,10.7,10.2,19,21.2,19h291.7c1.7,0,3,1.3,3,3v24.3c0,1.7-1.3,3-3,3H100.2c-28.5,0-51.6-23.2-51.6-51.6s6.6-29.4,18.1-39.2L49,30.3H3c-1.7,0-3-1.3-3-3V3C0,1.3,1.3,0,3,0h72.9C89.9,0,101.5,10.7,103,24.3h289c1.7,0,3,1.3,3,3v145.9c0,1.5-1.1,2.7-2.5,3ZM96.9,180.1l1.7,10.4,266.1-40.7V54.6H82.3l14.6,125.5Z"/>
    <rect class="st0" x="336.9" y="-61.6" width="388.8" height="389.8"/>
  </g>
</svg>