<?xml version="1.0" encoding="UTF-8"?>
<svg id="Livello_1" xmlns="http://www.w3.org/2000/svg" version="1.1" viewBox="0 0 390.4 345.8">
  <!-- Generator: Adobe Illustrator 29.3.1, SVG Export Plug-In . SVG Version: 2.1.0 Build 151)  -->
  <defs>
    <style>
      .st0 {
        fill: #cdde00;
      }
    </style>
  </defs>
  <g id="Modalità_Isolamento">
    <path class="st0" d="M332.6,50C295.8,17.8,247,0,195.2,0S94.6,17.8,57.8,50C20.6,82.7,0,126.3,0,172.9s13.4,72.7,37.8,102.2c-4.5,9-11.3,16.7-19.7,22.2-9,5.8-11.5,17.8-5.7,26.7,3,4.7,8,7.8,13.5,8.6,16.5,2.3,48.6,3.4,78.5-14.4,6.8-4.1,9-12.9,5-19.8-4.1-6.8-12.9-9-19.8-5-11.3,6.6-24,10.5-37.1,11.4,6.7-8.2,12-17.5,15.6-27.4,1.9-5.1.8-10.8-2.9-14.8-23.8-25.8-36.4-56.9-36.4-89.8C28.8,93.5,103.4,28.8,195.2,28.8s166.4,64.6,166.4,144.1-74.6,144.1-166.4,144.1-26.4-1.3-39.4-4.1c-7.8-1.5-15.4,3.7-16.8,11.6-1.4,7.6,3.4,14.9,10.8,16.7,14.9,3.1,30.1,4.7,45.4,4.7,51.8,0,100.6-17.8,137.4-50,37.3-32.8,57.8-76.4,57.8-123s-20.6-90.2-57.8-122.9h0Z"/>
    <path class="st0" d="M176.3,192.3v-7.6c-.1-6,1.3-11.9,4.2-17.1,2.8-4.9,7.9-10,15.4-15.5,7.2-5.1,11.9-9.3,14.2-12.5,2.3-3.1,3.5-6.9,3.4-10.8,0-4.4-1.6-7.8-4.9-10.1-3.3-2.3-7.9-3.5-13.7-3.5-10.3,0-21.9,3.3-35.1,10l-11.2-22.5c14.8-8.4,31.5-12.8,48.5-12.8s25.3,3.4,33.6,10.1c8.3,6.8,12.5,15.8,12.5,27.1s-1.7,14-5.1,19.5c-3.4,5.5-9.9,11.6-19.5,18.5-6.6,4.9-10.7,8.5-12.5,11.1-1.7,2.5-2.6,5.8-2.6,10v6.1h-27.2,0ZM173,227.3c0-5.7,1.5-10.1,4.6-13s7.6-4.4,13.4-4.4,10.1,1.5,13.2,4.5,4.7,7.3,4.7,12.9-1.6,9.7-4.7,12.8-7.5,4.7-13.1,4.7-10.2-1.5-13.3-4.6c-3.1-3-4.7-7.3-4.7-12.9h0Z"/>
  </g>
</svg>