<?xml version="1.0" encoding="UTF-8"?>
<svg id="Livello_1" xmlns="http://www.w3.org/2000/svg" xmlns:xlink="http://www.w3.org/1999/xlink" version="1.1" viewBox="0 0 388.8 388.5">
  <!-- Generator: Adobe Illustrator 29.3.1, SVG Export Plug-In . SVG Version: 2.1.0 Build 151)  -->
  <defs>
    <style>
      .st0 {
        fill: none;
      }

      .st1 {
        fill: #cdde00;
      }

      .st2 {
        clip-path: url(#clippath);
      }
    </style>
    <clipPath id="clippath">
      <rect class="st0" y="-.3" width="388.8" height="389.8"/>
    </clipPath>
  </defs>
  <g id="Livello_11">
    <g class="st2">
      <path class="st1" d="M388.6,176.8c0-13.3-9.8-24.7-23-26.7l-24.2-3.9c-2.5-7.7-5.6-15.2-9.3-22.4l14.5-20.7c7.6-10.9,6.3-25.7-3.2-35l-23.7-23.4c-9.5-9.3-24.3-10.4-35-2.6,0,0-.2,0-.2.2l-91,68.1h-.9c-46.5,1-83.3,39.5-82.3,86,1,45.8,38.4,82.4,84.2,82.3h1.9c46.5-1.1,83.3-39.6,82.2-86.1-.2-9.2-1.9-18.4-5.1-27-3.1-7.3-11.6-10.7-18.9-7.6-6.8,2.9-10.3,10.5-8.1,17.5,10.5,28.7-4.2,60.5-32.9,71-5.7,2.1-11.7,3.2-17.8,3.4h-1.4c-30.6,0-55.4-24.7-55.5-55.3,0-30,23.8-54.7,53.9-55.5h5c3.2.1,6.3-.9,8.9-2.8l93.7-70.1,21.8,21.5-13.9,19.8c-6,8.6-6.7,19.9-1.9,29.2,3.1,5.9,5.6,12.1,7.7,18.5,3.2,10.2,11.9,17.6,22.4,19.3l23.3,3.8.2,31-24,4.2c-10.4,1.9-18.8,9.4-21.9,19.4-2.1,6.3-4.6,12.5-7.6,18.5-4.9,9.4-4,20.8,2.2,29.4l13.8,19.1-21.5,21.8-19.8-13.9c-8.7-6-19.9-6.7-29.3-1.9-5.7,3-11.6,5.4-17.7,7.4-10.1,3.3-17.5,11.9-19.2,22.4l-3.8,23.7-31,.2-4.2-23.6c-1.8-10.4-9.3-18.9-19.4-22.1-6.4-2-12.7-4.5-18.7-7.5-9.4-4.8-20.7-4-29.3,2.2l-19.4,14.1-21.8-21.5,13.8-19.7c6.1-8.6,6.8-19.9,1.9-29.3-3.1-6-5.7-12.2-7.8-18.6-3.3-10-11.9-17.4-22.4-19.1l-23.7-3.8-.3-30.8,23.8-4.2c10.4-1.8,18.9-9.3,22.1-19.4,2-6.4,4.5-12.7,7.5-18.7,4.8-9.4,3.9-20.7-2.2-29.3l-14.1-19.4,21.5-21.8,19.6,13.6c8.7,6.1,20,6.8,29.4,1.8,6.1-3.2,12.4-5.8,19-7.9,10.3-3.1,17.9-11.9,19.6-22.5l3.8-23.2,32.3-.2c8,0,14.4-6.5,14.4-14.4C225.4,6.4,219,0,211,0h0l-33.6.2c-13.3,0-24.7,9.8-26.7,23l-3.9,24.1c-8.1,2.6-15.9,5.8-23.4,9.8l-20.5-14.4c-10.9-7.6-25.7-6.3-35,3.2l-23.4,23.8c-9.3,9.5-10.4,24.3-2.6,35l14.6,20.2c-3.6,7.3-6.7,14.8-9.1,22.6l-24.5,4.4h0c-12.7,2.4-22,13.2-22.6,26.1v.7l.2,33.6c0,13.3,9.8,24.7,23,26.7l24.6,3.9c2.6,7.7,5.7,15.2,9.4,22.4l-14.3,20.5c-7.6,10.9-6.3,25.7,3.2,35l23.8,23.4c9.5,9.3,24.2,10.4,35,2.6l20.2-14.6c7.3,3.6,14.8,6.7,22.6,9.1l4.3,24.6c2.3,13,13.6,22.5,26.9,22.5h.2l33.6-.2c13.3,0,24.7-9.8,26.7-23l3.9-24.6c7.3-2.5,14.5-5.5,21.4-9l20.7,14.5c10.9,7.6,25.7,6.3,35-3.2l23.4-23.8c9.3-9.4,10.5-24.3,2.6-35l-14.4-19.9c3.6-7.2,6.7-14.7,9.3-22.4l24.9-4.4c13.1-2.3,22.6-13.7,22.5-27l-.3-33.7h-.1Z"/>
    </g>
  </g>
</svg>