<?xml version="1.0" encoding="UTF-8"?>
<svg id="Livello_1" xmlns="http://www.w3.org/2000/svg" xmlns:xlink="http://www.w3.org/1999/xlink" version="1.1" viewBox="0 0 9 5">
  <!-- Generator: Adobe Illustrator 29.2.1, SVG Export Plug-In . SVG Version: 2.1.0 Build 116)  -->
  <defs>
    <style>
      .st0 {
        mask: url(#mask);
      }

      .st1 {
        fill: #fff;
      }

      .st1, .st2 {
        fill-rule: evenodd;
      }

      .st2 {
        fill: #777;
      }
    </style>
    <mask id="mask" x=".7" y="-1.2" width="8" height="7.5" maskUnits="userSpaceOnUse">
      <g id="mask-2">
        <path id="path-1" class="st1" d="M7.9.6l-3.2,2.4L1.5.6c0,0-.1,0-.2,0s-.1,0-.2,0l-.4.3c0,0,0,0,0,.1s0,0,0,.1l3.7,2.8c0,0,.1,0,.2,0s.1,0,.2,0l3.7-2.8c0,0,0,0,0-.1s0,0,0-.1l-.4-.3c0,0-.1,0-.2,0s-.1,0-.2,0Z"/>
      </g>
    </mask>
  </defs>
  <g id="_x30_0-STYLEGUIDE">
    <g id="_x30_5-_x5F_-STYLEGUIDE---Top-bar">
      <g id="TOP-BAR-MOB-close">
        <g id="BT-OPEN-PN">
          <g id="ARROW-UP">
            <g class="st0">
              <polygon id="Fill-1" class="st2" points="1.6 -1.2 1.6 6.2 7.4 6.2 7.4 -1.2 1.6 -1.2"/>
            </g>
          </g>
        </g>
      </g>
    </g>
  </g>
</svg>